<svg xmlns="http://www.w3.org/2000/svg" viewBox="0 0 800 2000" shape-rendering="crispEdges" width="100%" preserveAspectRatio="xMidYMid meet">
<defs>
  <linearGradient id="sky" x1="0" y1="0" x2="0" y2="1">
    <stop offset="0%"  stop-color="#B8C5E8"/>
    <stop offset="50%" stop-color="#E5C0D5"/>
    <stop offset="100%" stop-color="#F2D4DC"/>
  </linearGradient>
</defs>
<rect x="0" y="0" width="800" height="2000" fill="url(#sky)"/>
<text x="220" y="80" font-family="Courier,monospace" font-weight="700" font-size="34" fill="#9B7DD8" text-anchor="middle">Codepet</text>
<text x="410" y="80" font-family="Helvetica,Arial,sans-serif" font-weight="800" font-size="34" fill="#000000" text-anchor="middle">aws</text>
<path d="M 392 90 q 18 14 36 0" stroke="#F09F4D" stroke-width="4" fill="none" stroke-linecap="round"/>
<text x="575 " y="80" font-family="Helvetica,Arial,sans-serif" font-weight="700" font-size="32" fill="#000000" text-anchor="middle">MURROR</text>
<text x="400" y="320" font-family="'Press Start 2P',Courier,monospace" font-weight="900" font-size="130" text-anchor="middle" letter-spacing="6" fill="#9B7DD8" stroke="#FFFFFF" stroke-width="6" paint-order="stroke">THE NEXT</text>
<text x="400" y="485" font-family="'Press Start 2P',Courier,monospace" font-weight="900" font-size="130" text-anchor="middle" letter-spacing="6" fill="#9B7DD8" stroke="#FFFFFF" stroke-width="6" paint-order="stroke">MILLION</text>
<text x="400" y="600" font-family="Courier,monospace" font-weight="700" font-size="42" fill="#000000" text-anchor="middle" letter-spacing="3">AN EVENT BY ASTROVINH</text>
<text x="400" y="780" font-family="'Press Start 2P',Courier,monospace" font-weight="900" font-size="180" fill="#000000" text-anchor="middle" letter-spacing="8">05.16</text>
<rect x="100.0" y="1185.0" width="100.0" height="15.0" fill="#E8E6F2"/>
<rect x="85.0" y="1200.0" width="130.0" height="15.0" fill="#E8E6F2"/>
<rect x="100.0" y="1215.0" width="100.0" height="15.0" fill="#E8E6F2"/>
<rect x="90.0" y="1230.0" width="120.0" height="8.0" fill="#C4C2D8"/>
<rect x="640.0" y="1088.0" width="80.0" height="12.0" fill="#E8E6F2"/>
<rect x="628.0" y="1100.0" width="104.0" height="12.0" fill="#E8E6F2"/>
<rect x="640.0" y="1112.0" width="80.0" height="12.0" fill="#E8E6F2"/>
<rect x="632.0" y="1124.0" width="96.0" height="6.4" fill="#C4C2D8"/>
<rect x="85.0" y="1489.5" width="70.0" height="10.5" fill="#E8E6F2"/>
<rect x="74.5" y="1500.0" width="91.0" height="10.5" fill="#E8E6F2"/>
<rect x="85.0" y="1510.5" width="70.0" height="10.5" fill="#E8E6F2"/>
<rect x="78.0" y="1521.0" width="84.0" height="5.6" fill="#C4C2D8"/>
<rect x="650.0" y="1485.0" width="100.0" height="15.0" fill="#E8E6F2"/>
<rect x="635.0" y="1500.0" width="130.0" height="15.0" fill="#E8E6F2"/>
<rect x="650.0" y="1515.0" width="100.0" height="15.0" fill="#E8E6F2"/>
<rect x="640.0" y="1530.0" width="120.0" height="8.0" fill="#C4C2D8"/>
<rect x="635.0" y="1736.5" width="90.0" height="13.5" fill="#E8E6F2"/>
<rect x="621.5" y="1750.0" width="117.0" height="13.5" fill="#E8E6F2"/>
<rect x="635.0" y="1763.5" width="90.0" height="13.5" fill="#E8E6F2"/>
<rect x="626.0" y="1777.0" width="108.0" height="7.2" fill="#C4C2D8"/>
<rect x="300" y="1900" width="160" height="80" fill="#7E8794"/>
<rect x="310" y="1820" width="140" height="80" fill="#A6B0BD"/>
<rect x="315" y="1660" width="130" height="160" fill="#7E8794"/>
<rect x="320" y="1500" width="120" height="160" fill="#A6B0BD"/>
<rect x="325" y="1340" width="110" height="160" fill="#7E8794"/>
<rect x="330" y="1200" width="100" height="140" fill="#A6B0BD"/>
<rect x="335" y="1080" width="90" height="120" fill="#7E8794"/>
<rect x="340" y="980" width="80" height="100" fill="#A6B0BD"/>
<rect x="350" y="900" width="60" height="80" fill="#7E8794"/>
<rect x="360" y="840" width="40" height="60" fill="#A6B0BD"/>
<rect x="368" y="800" width="24" height="40" fill="#A6B0BD"/>
<rect x="372" y="760" width="16" height="40" fill="#3F4751"/>
<rect x="375" y="720" width="10" height="40" fill="#A6B0BD"/>
<rect x="377" y="680" width="6" height="40" fill="#3F4751"/>
<rect x="379" y="640" width="3" height="40" fill="#A6B0BD"/>
<rect x="430" y="1180" width="200" height="22" fill="#A6B0BD"/>
<rect x="430" y="1202" width="200" height="14" fill="#3F4751"/>
<rect x="430" y="1216" width="200" height="4" fill="#3F4751"/>
<rect x="438" y="1216" width="184" height="4" fill="#3F4751"/>
<rect x="446" y="1216" width="168" height="4" fill="#3F4751"/>
<rect x="454" y="1216" width="152" height="4" fill="#3F4751"/>
<rect x="462" y="1216" width="136" height="4" fill="#3F4751"/>
<rect x="470" y="1216" width="120" height="4" fill="#3F4751"/>
<rect x="478" y="1216" width="104" height="4" fill="#3F4751"/>
<rect x="486" y="1216" width="88" height="4" fill="#3F4751"/>
<rect x="442" y="1148" width="4" height="4" fill="#000000"/>
<rect x="446" y="1148" width="4" height="4" fill="#000000"/>
<rect x="470" y="1148" width="4" height="4" fill="#000000"/>
<rect x="474" y="1148" width="4" height="4" fill="#000000"/>
<rect x="438" y="1152" width="4" height="4" fill="#000000"/>
<rect x="442" y="1152" width="4" height="4" fill="#F09F4D"/>
<rect x="446" y="1152" width="4" height="4" fill="#F09F4D"/>
<rect x="450" y="1152" width="4" height="4" fill="#000000"/>
<rect x="466" y="1152" width="4" height="4" fill="#000000"/>
<rect x="470" y="1152" width="4" height="4" fill="#F09F4D"/>
<rect x="474" y="1152" width="4" height="4" fill="#F09F4D"/>
<rect x="478" y="1152" width="4" height="4" fill="#000000"/>
<rect x="438" y="1156" width="4" height="4" fill="#000000"/>
<rect x="442" y="1156" width="4" height="4" fill="#F09F4D"/>
<rect x="446" y="1156" width="4" height="4" fill="#F09F4D"/>
<rect x="450" y="1156" width="4" height="4" fill="#F09F4D"/>
<rect x="454" y="1156" width="4" height="4" fill="#000000"/>
<rect x="462" y="1156" width="4" height="4" fill="#000000"/>
<rect x="466" y="1156" width="4" height="4" fill="#F09F4D"/>
<rect x="470" y="1156" width="4" height="4" fill="#F09F4D"/>
<rect x="474" y="1156" width="4" height="4" fill="#F09F4D"/>
<rect x="478" y="1156" width="4" height="4" fill="#000000"/>
<rect x="438" y="1160" width="4" height="4" fill="#000000"/>
<rect x="442" y="1160" width="4" height="4" fill="#F09F4D"/>
<rect x="446" y="1160" width="4" height="4" fill="#FFFFFF"/>
<rect x="450" y="1160" width="4" height="4" fill="#F09F4D"/>
<rect x="454" y="1160" width="4" height="4" fill="#000000"/>
<rect x="458" y="1160" width="4" height="4" fill="#000000"/>
<rect x="462" y="1160" width="4" height="4" fill="#000000"/>
<rect x="466" y="1160" width="4" height="4" fill="#F09F4D"/>
<rect x="470" y="1160" width="4" height="4" fill="#FFFFFF"/>
<rect x="474" y="1160" width="4" height="4" fill="#F09F4D"/>
<rect x="478" y="1160" width="4" height="4" fill="#000000"/>
<rect x="438" y="1164" width="4" height="4" fill="#000000"/>
<rect x="442" y="1164" width="4" height="4" fill="#F09F4D"/>
<rect x="446" y="1164" width="4" height="4" fill="#F09F4D"/>
<rect x="450" y="1164" width="4" height="4" fill="#F09F4D"/>
<rect x="454" y="1164" width="4" height="4" fill="#F09F4D"/>
<rect x="458" y="1164" width="4" height="4" fill="#F09F4D"/>
<rect x="462" y="1164" width="4" height="4" fill="#F09F4D"/>
<rect x="466" y="1164" width="4" height="4" fill="#F09F4D"/>
<rect x="470" y="1164" width="4" height="4" fill="#F09F4D"/>
<rect x="474" y="1164" width="4" height="4" fill="#F09F4D"/>
<rect x="478" y="1164" width="4" height="4" fill="#F09F4D"/>
<rect x="442" y="1168" width="4" height="4" fill="#000000"/>
<rect x="446" y="1168" width="4" height="4" fill="#F09F4D"/>
<rect x="450" y="1168" width="4" height="4" fill="#F09F4D"/>
<rect x="454" y="1168" width="4" height="4" fill="#F09F4D"/>
<rect x="458" y="1168" width="4" height="4" fill="#F09F4D"/>
<rect x="462" y="1168" width="4" height="4" fill="#F09F4D"/>
<rect x="466" y="1168" width="4" height="4" fill="#F09F4D"/>
<rect x="470" y="1168" width="4" height="4" fill="#F09F4D"/>
<rect x="474" y="1168" width="4" height="4" fill="#000000"/>
<rect x="487" y="1148" width="4" height="4" fill="#000000"/>
<rect x="491" y="1148" width="4" height="4" fill="#000000"/>
<rect x="515" y="1148" width="4" height="4" fill="#000000"/>
<rect x="519" y="1148" width="4" height="4" fill="#000000"/>
<rect x="483" y="1152" width="4" height="4" fill="#000000"/>
<rect x="487" y="1152" width="4" height="4" fill="#FFB7D2"/>
<rect x="491" y="1152" width="4" height="4" fill="#FFB7D2"/>
<rect x="495" y="1152" width="4" height="4" fill="#000000"/>
<rect x="511" y="1152" width="4" height="4" fill="#000000"/>
<rect x="515" y="1152" width="4" height="4" fill="#FFB7D2"/>
<rect x="519" y="1152" width="4" height="4" fill="#FFB7D2"/>
<rect x="523" y="1152" width="4" height="4" fill="#000000"/>
<rect x="483" y="1156" width="4" height="4" fill="#000000"/>
<rect x="487" y="1156" width="4" height="4" fill="#FFB7D2"/>
<rect x="491" y="1156" width="4" height="4" fill="#D04999"/>
<rect x="495" y="1156" width="4" height="4" fill="#000000"/>
<rect x="511" y="1156" width="4" height="4" fill="#000000"/>
<rect x="515" y="1156" width="4" height="4" fill="#FFB7D2"/>
<rect x="519" y="1156" width="4" height="4" fill="#D04999"/>
<rect x="523" y="1156" width="4" height="4" fill="#000000"/>
<rect x="483" y="1160" width="4" height="4" fill="#000000"/>
<rect x="487" y="1160" width="4" height="4" fill="#FFB7D2"/>
<rect x="491" y="1160" width="4" height="4" fill="#FFB7D2"/>
<rect x="495" y="1160" width="4" height="4" fill="#FFB7D2"/>
<rect x="499" y="1160" width="4" height="4" fill="#FFB7D2"/>
<rect x="503" y="1160" width="4" height="4" fill="#FFB7D2"/>
<rect x="507" y="1160" width="4" height="4" fill="#FFB7D2"/>
<rect x="511" y="1160" width="4" height="4" fill="#FFB7D2"/>
<rect x="515" y="1160" width="4" height="4" fill="#FFB7D2"/>
<rect x="519" y="1160" width="4" height="4" fill="#FFB7D2"/>
<rect x="523" y="1160" width="4" height="4" fill="#FFB7D2"/>
<rect x="483" y="1164" width="4" height="4" fill="#000000"/>
<rect x="487" y="1164" width="4" height="4" fill="#FFB7D2"/>
<rect x="491" y="1164" width="4" height="4" fill="#FFFFFF"/>
<rect x="495" y="1164" width="4" height="4" fill="#FFB7D2"/>
<rect x="499" y="1164" width="4" height="4" fill="#000000"/>
<rect x="503" y="1164" width="4" height="4" fill="#000000"/>
<rect x="507" y="1164" width="4" height="4" fill="#FFB7D2"/>
<rect x="511" y="1164" width="4" height="4" fill="#FFFFFF"/>
<rect x="515" y="1164" width="4" height="4" fill="#FFB7D2"/>
<rect x="519" y="1164" width="4" height="4" fill="#000000"/>
<rect x="487" y="1168" width="4" height="4" fill="#000000"/>
<rect x="491" y="1168" width="4" height="4" fill="#FFB7D2"/>
<rect x="495" y="1168" width="4" height="4" fill="#FFB7D2"/>
<rect x="499" y="1168" width="4" height="4" fill="#FFB7D2"/>
<rect x="503" y="1168" width="4" height="4" fill="#FFB7D2"/>
<rect x="507" y="1168" width="4" height="4" fill="#FFB7D2"/>
<rect x="511" y="1168" width="4" height="4" fill="#FFB7D2"/>
<rect x="515" y="1168" width="4" height="4" fill="#FFB7D2"/>
<rect x="519" y="1168" width="4" height="4" fill="#000000"/>
<rect x="540" y="1148" width="4" height="4" fill="#000000"/>
<rect x="544" y="1148" width="4" height="4" fill="#000000"/>
<rect x="548" y="1148" width="4" height="4" fill="#000000"/>
<rect x="552" y="1148" width="4" height="4" fill="#000000"/>
<rect x="536" y="1152" width="4" height="4" fill="#000000"/>
<rect x="540" y="1152" width="4" height="4" fill="#1C40CF"/>
<rect x="544" y="1152" width="4" height="4" fill="#1C40CF"/>
<rect x="548" y="1152" width="4" height="4" fill="#1C40CF"/>
<rect x="552" y="1152" width="4" height="4" fill="#1C40CF"/>
<rect x="556" y="1152" width="4" height="4" fill="#000000"/>
<rect x="532" y="1156" width="4" height="4" fill="#000000"/>
<rect x="536" y="1156" width="4" height="4" fill="#1C40CF"/>
<rect x="540" y="1156" width="4" height="4" fill="#FFFFFF"/>
<rect x="544" y="1156" width="4" height="4" fill="#FFFFFF"/>
<rect x="548" y="1156" width="4" height="4" fill="#FFFFFF"/>
<rect x="552" y="1156" width="4" height="4" fill="#1C40CF"/>
<rect x="556" y="1156" width="4" height="4" fill="#000000"/>
<rect x="532" y="1160" width="4" height="4" fill="#000000"/>
<rect x="536" y="1160" width="4" height="4" fill="#1C40CF"/>
<rect x="540" y="1160" width="4" height="4" fill="#FFFFFF"/>
<rect x="544" y="1160" width="4" height="4" fill="#000000"/>
<rect x="548" y="1160" width="4" height="4" fill="#FFFFFF"/>
<rect x="552" y="1160" width="4" height="4" fill="#1C40CF"/>
<rect x="556" y="1160" width="4" height="4" fill="#000000"/>
<rect x="532" y="1164" width="4" height="4" fill="#000000"/>
<rect x="536" y="1164" width="4" height="4" fill="#1C40CF"/>
<rect x="540" y="1164" width="4" height="4" fill="#FFFFFF"/>
<rect x="544" y="1164" width="4" height="4" fill="#FFFFFF"/>
<rect x="548" y="1164" width="4" height="4" fill="#FFFFFF"/>
<rect x="552" y="1164" width="4" height="4" fill="#1C40CF"/>
<rect x="556" y="1164" width="4" height="4" fill="#000000"/>
<rect x="532" y="1168" width="4" height="4" fill="#000000"/>
<rect x="536" y="1168" width="4" height="4" fill="#1C40CF"/>
<rect x="540" y="1168" width="4" height="4" fill="#7BB8E0"/>
<rect x="544" y="1168" width="4" height="4" fill="#7BB8E0"/>
<rect x="548" y="1168" width="4" height="4" fill="#7BB8E0"/>
<rect x="552" y="1168" width="4" height="4" fill="#1C40CF"/>
<rect x="556" y="1168" width="4" height="4" fill="#000000"/>
<rect x="536" y="1172" width="4" height="4" fill="#000000"/>
<rect x="540" y="1172" width="4" height="4" fill="#FCBE1D"/>
<rect x="544" y="1172" width="4" height="4" fill="#FCBE1D"/>
<rect x="552" y="1172" width="4" height="4" fill="#FCBE1D"/>
<rect x="556" y="1172" width="4" height="4" fill="#FCBE1D"/>
<rect x="577" y="1148" width="4" height="4" fill="#000000"/>
<rect x="581" y="1148" width="4" height="4" fill="#000000"/>
<rect x="605" y="1148" width="4" height="4" fill="#000000"/>
<rect x="609" y="1148" width="4" height="4" fill="#000000"/>
<rect x="573" y="1152" width="4" height="4" fill="#000000"/>
<rect x="577" y="1152" width="4" height="4" fill="#015A01"/>
<rect x="581" y="1152" width="4" height="4" fill="#015A01"/>
<rect x="585" y="1152" width="4" height="4" fill="#000000"/>
<rect x="601" y="1152" width="4" height="4" fill="#000000"/>
<rect x="605" y="1152" width="4" height="4" fill="#015A01"/>
<rect x="609" y="1152" width="4" height="4" fill="#015A01"/>
<rect x="613" y="1152" width="4" height="4" fill="#000000"/>
<rect x="573" y="1156" width="4" height="4" fill="#000000"/>
<rect x="577" y="1156" width="4" height="4" fill="#015A01"/>
<rect x="581" y="1156" width="4" height="4" fill="#029902"/>
<rect x="585" y="1156" width="4" height="4" fill="#000000"/>
<rect x="601" y="1156" width="4" height="4" fill="#000000"/>
<rect x="605" y="1156" width="4" height="4" fill="#015A01"/>
<rect x="609" y="1156" width="4" height="4" fill="#029902"/>
<rect x="613" y="1156" width="4" height="4" fill="#000000"/>
<rect x="573" y="1160" width="4" height="4" fill="#000000"/>
<rect x="577" y="1160" width="4" height="4" fill="#029902"/>
<rect x="581" y="1160" width="4" height="4" fill="#029902"/>
<rect x="585" y="1160" width="4" height="4" fill="#029902"/>
<rect x="589" y="1160" width="4" height="4" fill="#029902"/>
<rect x="593" y="1160" width="4" height="4" fill="#029902"/>
<rect x="597" y="1160" width="4" height="4" fill="#029902"/>
<rect x="601" y="1160" width="4" height="4" fill="#029902"/>
<rect x="605" y="1160" width="4" height="4" fill="#029902"/>
<rect x="609" y="1160" width="4" height="4" fill="#029902"/>
<rect x="573" y="1164" width="4" height="4" fill="#000000"/>
<rect x="577" y="1164" width="4" height="4" fill="#029902"/>
<rect x="581" y="1164" width="4" height="4" fill="#FFFFFF"/>
<rect x="585" y="1164" width="4" height="4" fill="#029902"/>
<rect x="589" y="1164" width="4" height="4" fill="#000000"/>
<rect x="593" y="1164" width="4" height="4" fill="#000000"/>
<rect x="597" y="1164" width="4" height="4" fill="#029902"/>
<rect x="601" y="1164" width="4" height="4" fill="#FFFFFF"/>
<rect x="605" y="1164" width="4" height="4" fill="#029902"/>
<rect x="609" y="1164" width="4" height="4" fill="#000000"/>
<rect x="577" y="1168" width="4" height="4" fill="#000000"/>
<rect x="581" y="1168" width="4" height="4" fill="#029902"/>
<rect x="585" y="1168" width="4" height="4" fill="#029902"/>
<rect x="589" y="1168" width="4" height="4" fill="#029902"/>
<rect x="593" y="1168" width="4" height="4" fill="#029902"/>
<rect x="597" y="1168" width="4" height="4" fill="#029902"/>
<rect x="601" y="1168" width="4" height="4" fill="#029902"/>
<rect x="605" y="1168" width="4" height="4" fill="#029902"/>
<rect x="609" y="1168" width="4" height="4" fill="#000000"/>
<rect x="0" y="1890" width="800" height="110" fill="#3A2419"/>
<rect x="0" y="1890" width="40" height="12" fill="#1F1108"/>
<rect x="3" y="1880" width="34" height="12" fill="#3A2419"/>
<rect x="6" y="1870" width="28" height="12" fill="#1F1108"/>
<rect x="9" y="1860" width="22" height="12" fill="#3A2419"/>
<rect x="12" y="1850" width="16" height="12" fill="#1F1108"/>
<rect x="60" y="1890" width="60" height="12" fill="#1F1108"/>
<rect x="63" y="1880" width="54" height="12" fill="#3A2419"/>
<rect x="66" y="1870" width="48" height="12" fill="#1F1108"/>
<rect x="69" y="1860" width="42" height="12" fill="#3A2419"/>
<rect x="72" y="1850" width="36" height="12" fill="#1F1108"/>
<rect x="75" y="1840" width="30" height="12" fill="#3A2419"/>
<rect x="78" y="1830" width="24" height="12" fill="#1F1108"/>
<rect x="81" y="1820" width="18" height="12" fill="#3A2419"/>
<rect x="84" y="1810" width="12" height="12" fill="#1F1108"/>
<rect x="160" y="1890" width="50" height="12" fill="#1F1108"/>
<rect x="163" y="1880" width="43" height="12" fill="#3A2419"/>
<rect x="167" y="1870" width="36" height="12" fill="#1F1108"/>
<rect x="170" y="1860" width="29" height="12" fill="#3A2419"/>
<rect x="174" y="1850" width="22" height="12" fill="#1F1108"/>
<rect x="177" y="1840" width="15" height="12" fill="#3A2419"/>
<rect x="240" y="1890" width="70" height="12" fill="#1F1108"/>
<rect x="242" y="1880" width="65" height="12" fill="#3A2419"/>
<rect x="245" y="1870" width="60" height="12" fill="#1F1108"/>
<rect x="247" y="1860" width="55" height="12" fill="#3A2419"/>
<rect x="250" y="1850" width="50" height="12" fill="#1F1108"/>
<rect x="252" y="1840" width="45" height="12" fill="#3A2419"/>
<rect x="255" y="1830" width="40" height="12" fill="#1F1108"/>
<rect x="257" y="1820" width="35" height="12" fill="#3A2419"/>
<rect x="260" y="1810" width="30" height="12" fill="#1F1108"/>
<rect x="262" y="1800" width="25" height="12" fill="#3A2419"/>
<rect x="265" y="1790" width="20" height="12" fill="#1F1108"/>
<rect x="340" y="1890" width="55" height="12" fill="#1F1108"/>
<rect x="343" y="1880" width="49" height="12" fill="#3A2419"/>
<rect x="346" y="1870" width="43" height="12" fill="#1F1108"/>
<rect x="349" y="1860" width="37" height="12" fill="#3A2419"/>
<rect x="352" y="1850" width="31" height="12" fill="#1F1108"/>
<rect x="355" y="1840" width="25" height="12" fill="#3A2419"/>
<rect x="358" y="1830" width="19" height="12" fill="#1F1108"/>
<rect x="430" y="1890" width="65" height="12" fill="#1F1108"/>
<rect x="432" y="1880" width="60" height="12" fill="#3A2419"/>
<rect x="435" y="1870" width="55" height="12" fill="#1F1108"/>
<rect x="437" y="1860" width="50" height="12" fill="#3A2419"/>
<rect x="440" y="1850" width="45" height="12" fill="#1F1108"/>
<rect x="442" y="1840" width="40" height="12" fill="#3A2419"/>
<rect x="445" y="1830" width="35" height="12" fill="#1F1108"/>
<rect x="447" y="1820" width="30" height="12" fill="#3A2419"/>
<rect x="450" y="1810" width="25" height="12" fill="#1F1108"/>
<rect x="452" y="1800" width="20" height="12" fill="#3A2419"/>
<rect x="520" y="1890" width="60" height="12" fill="#1F1108"/>
<rect x="523" y="1880" width="54" height="12" fill="#3A2419"/>
<rect x="526" y="1870" width="48" height="12" fill="#1F1108"/>
<rect x="529" y="1860" width="42" height="12" fill="#3A2419"/>
<rect x="532" y="1850" width="36" height="12" fill="#1F1108"/>
<rect x="535" y="1840" width="30" height="12" fill="#3A2419"/>
<rect x="538" y="1830" width="24" height="12" fill="#1F1108"/>
<rect x="541" y="1820" width="18" height="12" fill="#3A2419"/>
<rect x="620" y="1890" width="70" height="12" fill="#1F1108"/>
<rect x="622" y="1880" width="65" height="12" fill="#3A2419"/>
<rect x="625" y="1870" width="60" height="12" fill="#1F1108"/>
<rect x="627" y="1860" width="55" height="12" fill="#3A2419"/>
<rect x="630" y="1850" width="50" height="12" fill="#1F1108"/>
<rect x="632" y="1840" width="45" height="12" fill="#3A2419"/>
<rect x="635" y="1830" width="40" height="12" fill="#1F1108"/>
<rect x="637" y="1820" width="35" height="12" fill="#3A2419"/>
<rect x="640" y="1810" width="30" height="12" fill="#1F1108"/>
<rect x="642" y="1800" width="25" height="12" fill="#3A2419"/>
<rect x="645" y="1790" width="20" height="12" fill="#1F1108"/>
<rect x="647" y="1780" width="15" height="12" fill="#3A2419"/>
<rect x="720" y="1890" width="60" height="12" fill="#1F1108"/>
<rect x="723" y="1880" width="54" height="12" fill="#3A2419"/>
<rect x="726" y="1870" width="48" height="12" fill="#1F1108"/>
<rect x="729" y="1860" width="42" height="12" fill="#3A2419"/>
<rect x="732" y="1850" width="36" height="12" fill="#1F1108"/>
<rect x="735" y="1840" width="30" height="12" fill="#3A2419"/>
<rect x="738" y="1830" width="24" height="12" fill="#1F1108"/>
<rect x="741" y="1820" width="18" height="12" fill="#3A2419"/>
</svg>
